<svg id="Layer_1" enable-background="new 0 0 256 256" height="512" viewBox="0 0 256 256" width="512" xmlns="http://www.w3.org/2000/svg"><path d="m202.198 152.647-14.954-30.15-25.277-52.968c-3.565-7.471-5.415-15.644-5.415-23.922v-9.055c-.001-15.769-12.783-28.552-28.552-28.552-15.768 0-28.551 12.783-28.551 28.551v9.055c0 8.278-1.85 16.451-5.415 23.922l-25.277 52.968-14.954 30.15c-.609 1.868-.937 3.82-.937 5.785 0 10.078 8.17 18.247 18.247 18.247h30.052c3.989 10.958 14.498 18.784 26.836 18.784 12.337 0 22.846-7.826 26.836-18.784h30.052c10.078 0 18.247-8.17 18.247-18.247-.001-1.964-.329-3.917-.938-5.784z" fill="#f9cfcf"/><g fill="#3762cc"><path d="m128 197.463c-12.325 0-23.483-7.492-28.201-18.784h-28.687c-11.165 0-20.248-9.083-20.248-20.247 0-2.143.349-4.298 1.036-6.405.03-.092.066-.182.109-.269l14.954-30.15 25.265-52.94c3.415-7.155 5.22-15.13 5.22-23.061v-9.055c0-16.847 13.705-30.552 30.552-30.552s30.552 13.705 30.552 30.552v9.055c0 7.931 1.805 15.905 5.22 23.061l25.277 52.968 14.941 30.123c.043.087.079.177.109.269.688 2.107 1.036 4.263 1.036 6.405 0 11.164-9.083 20.247-20.248 20.247h-28.687c-4.717 11.291-15.875 18.783-28.2 18.783zm-72.34-44.062c-.528 1.663-.796 3.354-.796 5.03 0 8.959 7.289 16.247 16.248 16.247h30.052c.841 0 1.592.525 1.879 1.315 3.805 10.448 13.834 17.469 24.957 17.469s21.152-7.021 24.957-17.469c.287-.79 1.038-1.315 1.879-1.315h30.052c8.959 0 16.248-7.288 16.248-16.247 0-1.676-.268-3.367-.796-5.03l-14.888-30.017-25.29-52.995c-3.671-7.69-5.61-16.26-5.61-24.783v-9.055c0-14.64-11.911-26.551-26.552-26.551s-26.552 11.911-26.552 26.552v9.055c0 8.523-1.939 17.093-5.61 24.783l-25.277 52.968z"/><path d="m128 197.463c-16.847 0-30.552-13.705-30.552-30.552 0-1.104.896-2 2-2s2 .896 2 2c0 14.641 11.911 26.552 26.552 26.552s26.552-11.911 26.552-26.552c0-1.104.896-2 2-2s2 .896 2 2c0 16.847-13.705 30.552-30.552 30.552z"/><path d="m99.66 172.938c-.711 0-1.399-.38-1.762-1.05-2.451-4.537-7.175-7.356-12.328-7.356-4.982 0-9.63 2.683-12.128 7.001-.554.956-1.777 1.282-2.733.729-.956-.554-1.282-1.776-.729-2.733 3.211-5.55 9.185-8.997 15.591-8.997 6.624 0 12.697 3.623 15.848 9.456.524.972.163 2.185-.81 2.71-.302.162-.629.24-.949.24z"/><path d="m128 197.463c-16.847 0-30.552-13.705-30.552-30.552 0-1.104.896-2 2-2s2 .896 2 2c0 14.641 11.911 26.552 26.552 26.552s26.552-11.911 26.552-26.552c0-1.104.896-2 2-2s2 .896 2 2c0 16.847-13.705 30.552-30.552 30.552z"/></g><path d="m165.253 214.327c.32.009.643.008.968-.002 8.527-.278 15.146-7.598 15.146-16.129v-23.871-6.021h-.001c-.721-.709-1.51-1.351-2.353-1.915-.015-.01-.031-.02-.046-.031-.831-.552-1.716-1.028-2.645-1.421-.044-.019-.088-.035-.132-.053-.404-.166-.816-.314-1.236-.448-.075-.024-.15-.05-.226-.073-.459-.139-.927-.26-1.403-.357-.057-.012-.115-.02-.172-.03-.411-.08-.829-.141-1.25-.189-.124-.014-.247-.028-.371-.039-.481-.043-.967-.073-1.459-.073-5.94 0-11.128 3.215-13.924 7.997-.742 4.42-2.504 8.491-5.028 11.974l.03 15.764c.016 7.92 6.186 14.696 14.102 14.917z" fill="#a4c9ff"/><path d="m184.267 174.144c-.712 0-1.4-.38-1.762-1.05-2.472-4.577-7.235-7.42-12.432-7.42-5.024 0-9.711 2.705-12.23 7.061-.554.956-1.776 1.284-2.733.729-.956-.554-1.282-1.777-.729-2.733 3.232-5.586 9.246-9.057 15.693-9.057 6.668 0 12.78 3.647 15.951 9.52.524.972.162 2.185-.81 2.71-.302.162-.628.24-.948.24z" fill="#3762cc"/><path d="m171.42 197.969c-1.649 0-2.987-1.337-2.987-2.987v-16.556c0-1.649 1.337-2.987 2.987-2.987 1.649 0 2.987 1.337 2.987 2.987v16.556c0 1.65-1.337 2.987-2.987 2.987z" fill="#e0ebfc"/><path d="m128 197.463c-16.847 0-30.552-13.705-30.552-30.552 0-1.104.896-2 2-2s2 .896 2 2c0 14.641 11.911 26.552 26.552 26.552s26.552-11.911 26.552-26.552c0-1.104.896-2 2-2s2 .896 2 2c0 16.847-13.705 30.552-30.552 30.552z" fill="#3762cc"/><path d="m138.954 204.258-12.43 18.678c-4.58 6.883-3.099 15.868 3.484 21.136 6.546 5.237 16.186 5.237 22.731 0 6.583-5.268 8.065-14.253 3.484-21.136l-12.43-18.678c-1.115-1.677-3.722-1.677-4.839 0z" fill="#6bdddd"/></svg>