<svg id="Layer_1" enable-background="new 0 0 256 256" height="512" viewBox="0 0 256 256" width="512" xmlns="http://www.w3.org/2000/svg"><path d="m189.122 146.583h-166.122c-8.284 0-15-6.716-15-15v-108.438c0-8.284 6.716-15 15-15h166.122c8.284 0 15 6.716 15 15v108.439c0 8.284-6.716 14.999-15 14.999z" fill="#f9a7a7"/><path d="m189.122 148.583h-166.122c-9.374 0-17-7.626-17-17v-108.438c0-9.374 7.626-17 17-17h166.122c9.374 0 17 7.626 17 17v108.439c0 9.374-7.626 16.999-17 16.999zm-166.122-138.438c-7.168 0-13 5.832-13 13v108.439c0 7.168 5.832 13 13 13h166.122c7.168 0 13-5.832 13-13v-108.439c0-7.168-5.832-13-13-13z" fill="#3762cc"/><path d="m139.659 175.149h-8.859c-.019-.001-.038-.004-.057-.004l-.003.004h-58.277c-15.396 0-27.876 12.481-27.876 27.876v13.984 3.971 7.354h122.949v-7.354-3.971-13.984c-.001-15.396-12.481-27.876-27.877-27.876z" fill="#6bdddd"/><path d="m161.067 95.766c-.117 0-.229.015-.346.017v-5.118c0-29.916-24.472-54.168-54.66-54.168-30.188 0-54.66 24.252-54.66 54.168v5.118c-.116-.002-.229-.017-.345-.017-9.21 0-16.676 7.399-16.676 16.526s7.466 16.526 16.676 16.526c.605 0 1.201-.036 1.789-.098 5.641 23.964 27.317 41.82 53.217 41.82 25.9 0 47.576-17.857 53.217-41.82.588.062 1.184.098 1.789.098 9.21 0 16.676-7.399 16.676-16.526-.001-9.127-7.468-16.526-16.677-16.526z" fill="#f9cfcf"/><path d="m78.898 129.961c-7.168 0-13.001-5.5-13.001-12.261 0-1.104.949-2 2.121-2 1.171 0 2.121.896 2.121 2 0 4.555 3.929 8.261 8.76 8.261 4.829 0 8.758-3.706 8.758-8.261 0-1.104.949-2 2.121-2 1.171 0 2.121.896 2.121 2-.001 6.761-5.832 12.261-13.001 12.261z" fill="#a4c9ff"/><path d="m78.899 122.467c-3.639 0-6.599-2.96-6.599-6.598v-10.997c0-3.638 2.96-6.598 6.599-6.598 3.638 0 6.598 2.96 6.598 6.598v10.997c0 3.638-2.961 6.598-6.598 6.598z" fill="#3762cc"/><path d="m132.965 129.961c-7.168 0-13.001-5.5-13.001-12.261 0-1.104.949-2 2.121-2 1.171 0 2.121.896 2.121 2 0 4.555 3.929 8.261 8.76 8.261 4.829 0 8.758-3.706 8.758-8.261 0-1.104.949-2 2.121-2 1.171 0 2.12.896 2.12 2-.001 6.761-5.832 12.261-13 12.261z" fill="#a4c9ff"/><path d="m132.965 122.467c-3.639 0-6.599-2.96-6.599-6.598v-10.997c0-3.638 2.96-6.598 6.599-6.598 3.638 0 6.598 2.96 6.598 6.598v10.997c0 3.638-2.96 6.598-6.598 6.598z" fill="#3762cc"/><path d="m106.061 172.54c-25.9 0-48.175-17.072-54.752-41.724-10.445.139-18.93-8.224-18.93-18.524 0-9.662 7.496-17.621 17.021-18.454v-3.173c0-30.971 25.418-56.168 56.66-56.168s56.66 25.197 56.66 56.168v3.173c9.525.833 17.021 8.792 17.021 18.454 0 10.215-8.378 18.526-18.676 18.526-.084 0-.169 0-.254-.002-6.576 24.652-28.851 41.724-54.75 41.724zm-53.214-45.82c.917 0 1.73.631 1.945 1.542 5.581 23.715 26.663 40.278 51.269 40.278 24.604 0 45.688-16.563 51.27-40.278.231-.981 1.147-1.641 2.157-1.531.556.059 1.072.087 1.579.087 8.092 0 14.676-6.516 14.676-14.526 0-8.006-6.576-14.52-14.663-14.526-.147.01-.235.015-.325.017-.533.033-1.054-.198-1.436-.573-.382-.376-.598-.89-.598-1.426v-5.118c0-28.766-23.623-52.168-52.66-52.168s-52.661 23.402-52.661 52.168v5.118c0 .536-.216 1.05-.598 1.426-.382.375-.879.605-1.436.573-.091-.001-.18-.007-.269-.013-.002 0-.005 0-.007 0-8.134 0-14.713 6.514-14.713 14.522 0 8.01 6.584 14.526 14.676 14.526.507 0 1.023-.028 1.581-.087.072-.008.142-.011.213-.011z" fill="#3762cc"/><path d="m117.012 147.412c-1.104 0-2-.896-2-2 0-1.143-.501-2.253-1.448-3.208-1.23-1.24-3.139-2.089-5.235-2.329-.131-.015-.257-.042-.379-.081h-3.79c-.117.039-.239.066-.365.081-2.098.241-4.006 1.089-5.235 2.329-.948.956-1.449 2.065-1.449 3.208 0 1.104-.896 2-2 2s-2-.896-2-2c0-2.189.927-4.33 2.609-6.025 1.765-1.779 4.248-2.978 7.043-3.409.246-.118.519-.184.805-.184h4.989c.307 0 .598.069.857.192 2.771.438 5.235 1.632 6.99 3.4 1.683 1.697 2.608 3.836 2.608 6.025 0 1.105-.896 2.001-2 2.001z" fill="#3762cc"/><path d="m106.061 170.54c-8.932 0-17.36-2.125-24.803-5.89v9.466c0 13.694 11.102 24.796 24.796 24.796s24.796-11.102 24.796-24.796v-9.459c-7.439 3.761-15.863 5.883-24.789 5.883z" fill="#f9cfcf"/><path d="m167.535 230.333h-122.949c-1.104 0-2-.896-2-2v-25.309c0-16.474 13.402-29.876 29.877-29.876h6.795v-8.499c0-.695.36-1.34.952-1.704.591-.365 1.329-.396 1.951-.081 7.442 3.766 15.483 5.675 23.899 5.675 8.411 0 16.448-1.907 23.887-5.667.619-.314 1.358-.284 1.95.081.592.364.952 1.009.952 1.704v8.491h6.81c16.474 0 29.876 13.402 29.876 29.876v25.309c0 1.105-.895 2-2 2zm-120.949-4h118.949v-23.309c0-14.269-11.607-25.876-25.876-25.876h-8.835c-.544 0-1.065-.222-1.442-.614s-.578-.921-.556-1.465c.013-.316.023-.633.023-.953v-6.306c-7.177 3.14-14.828 4.73-22.789 4.73-7.966 0-15.621-1.592-22.803-4.737v6.313c0 .318.011.633.024.947.023.545-.177 1.076-.554 1.469-.378.394-.899.616-1.444.616h-8.821c-14.269 0-25.877 11.608-25.877 25.876v23.309z" fill="#3762cc"/><path d="m90.789 86.98h-54.579v-18.95c0-29.426 23.854-53.28 53.28-53.28h15.326c7.747 0 14.027 6.28 14.027 14.027v30.149c.001 15.494-12.56 28.054-28.054 28.054z" fill="#4671c6"/><path d="m175.042 85.104h-31.762c-13.496 0-24.437-10.941-24.437-24.437v-33.097c0-7.08 5.74-12.82 12.82-12.82 23.958 0 43.379 19.422 43.379 43.379z" fill="#4671c6"/><path d="m41.956 86.98v11.473c2.618-1.694 5.739-2.687 9.099-2.687.117 0 .229.015.346.017v-5.118c0-1.239.05-2.467.132-3.685z" fill="#4671c6"/><path d="m160.427 85.104c.189 1.829.294 3.683.294 5.561v5.118c.116-.002.229-.017.346-.017 3.354 0 6.47.99 9.085 2.679v-13.341z" fill="#4671c6"/><g fill="#3762cc"><path d="m149.867 100.727h-5.412c-8.091 0-16.031-2.205-22.963-6.376l-2.477-1.49c-.946-.57-1.252-1.799-.683-2.745.57-.946 1.797-1.251 2.745-.683l2.477 1.49c6.31 3.797 13.536 5.804 20.9 5.804h5.412c1.104 0 2 .896 2 2s-.894 2-1.999 2z"/><path d="m67.666 100.727h-5.411c-1.104 0-2-.896-2-2s.896-2 2-2h5.411c7.364 0 14.592-2.007 20.901-5.804l2.477-1.49c.946-.569 2.175-.263 2.745.683.569.946.264 2.175-.683 2.745l-2.477 1.49c-6.931 4.17-14.872 6.376-22.963 6.376z"/><path d="m90.789 88.98h-54.579c-1.104 0-2-.896-2-2v-18.95c0-30.481 24.799-55.28 55.28-55.28h15.326c8.838 0 16.027 7.19 16.027 16.027v30.148c.001 16.573-13.482 30.055-30.054 30.055zm-52.579-4h52.579c14.366 0 26.055-11.688 26.055-26.055v-30.148c0-6.632-5.396-12.027-12.027-12.027h-15.327c-28.276 0-51.28 23.004-51.28 51.28z"/><path d="m175.042 87.104h-31.762c-14.577 0-26.437-11.859-26.437-26.437v-33.098c0-8.171 6.647-14.819 14.819-14.819 25.022 0 45.379 20.357 45.379 45.379v26.975c.001 1.104-.895 2-1.999 2zm-43.379-70.354c-5.966 0-10.819 4.854-10.819 10.819v33.098c0 12.372 10.065 22.437 22.437 22.437h29.762v-24.975c-.001-22.816-18.564-41.379-41.38-41.379z"/><path d="m41.956 100.453c-.328 0-.657-.081-.956-.243-.644-.35-1.044-1.024-1.044-1.757v-11.473c0-1.104.896-2 2-2h9.577c.554 0 1.083.23 1.462.635.378.405.571.948.533 1.501-.086 1.266-.128 2.427-.128 3.549v5.118c0 .536-.216 1.05-.598 1.426-.382.375-.879.605-1.436.573-.091-.001-.18-.007-.269-.013-.006 0-.013 0-.02 0-2.886 0-5.649.818-8.037 2.362-.327.215-.705.322-1.084.322zm2-11.473v6.18c1.735-.71 3.568-1.157 5.444-1.322v-3.173c0-.552.01-1.111.028-1.685z"/><path d="m170.151 100.445c-.378 0-.756-.107-1.085-.32-2.39-1.543-5.155-2.359-8-2.359-.133.01-.222.015-.313.017-.533.033-1.054-.197-1.436-.573s-.598-.89-.598-1.426v-5.118c0-1.729-.096-3.531-.283-5.356-.059-.563.125-1.125.504-1.545.38-.42.919-.66 1.485-.66h9.725c1.104 0 2 .896 2 2v13.341c0 .732-.4 1.406-1.044 1.756-.297.162-.627.243-.955.243zm-7.43-6.606c1.871.165 3.7.609 5.431 1.316v-8.051h-5.55c.079 1.208.119 2.399.119 3.562z"/></g><circle cx="195.532" cy="198.217" fill="#4671c6" r="52.306"/><circle cx="195.532" cy="198.217" fill="#ffea92" r="40.799"/><path d="m195.532 252.523c-29.944 0-54.307-24.362-54.307-54.306s24.362-54.306 54.307-54.306 54.306 24.362 54.306 54.306-24.361 54.306-54.306 54.306zm0-104.612c-27.739 0-50.307 22.567-50.307 50.306s22.567 50.306 50.307 50.306c27.738 0 50.306-22.567 50.306-50.306s-22.567-50.306-50.306-50.306z" fill="#3762cc"/><path d="m195.532 241.016c-23.6 0-42.799-19.2-42.799-42.799 0-23.6 19.199-42.799 42.799-42.799s42.799 19.2 42.799 42.799-19.199 42.799-42.799 42.799zm0-81.598c-21.394 0-38.799 17.405-38.799 38.799s17.405 38.799 38.799 38.799 38.799-17.405 38.799-38.799-17.405-38.799-38.799-38.799z" fill="#3762cc"/><path d="m221.208 212.574h-50.964c-2.437 0-4.413-1.976-4.413-4.413v-19.627c0-2.437 1.976-4.413 4.413-4.413h50.964c2.437 0 4.413 1.976 4.413 4.413v19.627c0 2.437-1.976 4.413-4.413 4.413z" fill="#4671c6"/><path d="m179.378 195.734c.874 0 1.627-.256 2.259-.77.632-.513.948-1.249.948-2.209 0-.731-.252-1.361-.756-1.888s-1.183-.791-2.038-.791c-.579 0-1.057.081-1.432.242-.376.162-.673.375-.892.642-.218.266-.425.608-.619 1.026-.195.418-.373.813-.535 1.183-.095.199-.266.356-.513.47s-.532.171-.855.171c-.38 0-.729-.154-1.047-.463s-.478-.72-.478-1.233c0-.494.149-1.014.449-1.561.299-.546.735-1.066 1.311-1.561s1.29-.891 2.145-1.19 1.811-.449 2.865-.449c.921 0 1.762.126 2.522.378s1.42.615 1.98 1.09.983 1.026 1.269 1.653c.285.627.428 1.302.428 2.024 0 .95-.207 1.765-.62 2.444s-1.005 1.342-1.774 1.988c.741.399 1.366.855 1.874 1.368.509.513.891 1.081 1.147 1.703.257.623.385 1.294.385 2.017 0 .865-.174 1.701-.521 2.508s-.857 1.527-1.531 2.159c-.675.632-1.476 1.125-2.401 1.482-.927.356-1.95.535-3.071.535-1.141 0-2.162-.205-3.064-.613-.902-.409-1.646-.919-2.23-1.532s-1.025-1.247-1.325-1.902c-.299-.656-.449-1.197-.449-1.625 0-.551.179-.995.535-1.333.355-.337.8-.506 1.332-.506.266 0 .522.079.77.235s.408.344.484.563c.494 1.32 1.024 2.301 1.59 2.943.564.641 1.36.962 2.387.962.589 0 1.156-.145 1.703-.435.546-.29.997-.72 1.354-1.29.356-.57.534-1.23.534-1.981 0-1.111-.304-1.983-.911-2.615-.608-.631-1.454-.948-2.537-.948-.19 0-.484.02-.884.057-.399.038-.655.057-.77.057-.522 0-.927-.13-1.211-.392-.285-.261-.428-.625-.428-1.09 0-.456.171-.824.513-1.104s.851-.42 1.525-.42h.583z" fill="#6bdddd"/><path d="m201.068 206.677-.704-1.851h-5.995l-.704 1.891c-.275.738-.51 1.235-.704 1.494-.195.258-.514.387-.956.387-.376 0-.707-.138-.996-.413-.288-.275-.432-.586-.432-.935 0-.201.033-.409.101-.624.066-.214.177-.513.331-.895l3.772-9.576c.107-.275.236-.605.388-.991.15-.385.312-.706.482-.96s.396-.461.674-.619.622-.236 1.031-.236c.416 0 .763.079 1.041.236s.503.36.674.608.315.515.433.8.267.666.447 1.142l3.853 9.516c.302.724.453 1.251.453 1.579 0 .342-.143.656-.428.94-.285.285-.629.428-1.031.428-.234 0-.436-.042-.604-.125-.167-.084-.309-.198-.422-.342-.114-.144-.236-.365-.367-.664s-.243-.562-.337-.79zm-5.915-4.094h4.406l-2.224-6.085z" fill="#6bdddd"/><path d="m211.429 206.124-2.364-9.395v10.179c0 .563-.126.986-.377 1.268-.252.282-.585.422-1.001.422-.402 0-.731-.139-.985-.417-.256-.278-.383-.702-.383-1.272v-11.669c0-.644.168-1.078.503-1.303s.788-.337 1.358-.337h.925c.557 0 .961.05 1.212.151.252.101.438.282.559.543.121.262.258.688.412 1.277l2.143 8.078 2.143-8.078c.154-.59.292-1.016.413-1.277.12-.261.307-.442.558-.543.252-.101.655-.151 1.212-.151h.926c.57 0 1.022.112 1.358.337.335.225.503.659.503 1.303v11.668c0 .563-.126.986-.378 1.268-.251.282-.588.422-1.011.422-.396 0-.721-.141-.976-.422s-.382-.704-.382-1.268v-10.179l-2.364 9.395c-.154.61-.28 1.058-.377 1.343-.098.285-.276.545-.538.78s-.624.352-1.087.352c-.349 0-.644-.075-.885-.226s-.43-.344-.563-.579-.239-.495-.316-.78c-.079-.285-.158-.582-.238-.89z" fill="#6bdddd"/><path d="m195.532 145.911c2.208 0 4.379.153 6.516.418v-10.593h-12.644v10.544c2.011-.235 4.053-.369 6.128-.369z" fill="#6bdddd"/><path d="m202.048 148.329c-.082 0-.164-.005-.247-.015-4.232-.526-7.93-.541-12.166-.047-.563.069-1.135-.113-1.562-.492-.426-.38-.67-.923-.67-1.494v-10.544c0-1.104.896-2 2-2h12.645c1.104 0 2 .896 2 2v10.593c0 .573-.246 1.119-.676 1.499-.367.324-.839.5-1.324.5zm-6.516-4.418c1.488 0 2.98.065 4.516.197v-6.371h-8.645v6.339c1.403-.111 2.768-.165 4.129-.165z" fill="#3762cc"/><path d="m207.187 138.254h-22.923c-2.302 0-4.168-1.866-4.168-4.168v-4.776c0-2.302 1.866-4.168 4.168-4.168h22.923c2.302 0 4.168 1.866 4.168 4.168v4.776c-.001 2.302-1.867 4.168-4.168 4.168z" fill="#a4c9ff"/><path d="m207.187 140.254h-22.923c-3.4 0-6.167-2.767-6.167-6.167v-4.776c0-3.401 2.767-6.167 6.167-6.167h22.923c3.401 0 6.168 2.767 6.168 6.167v4.776c-.001 3.401-2.767 6.167-6.168 6.167zm-22.923-13.11c-1.195 0-2.167.972-2.167 2.167v4.776c0 1.195.972 2.167 2.167 2.167h22.923c1.195 0 2.168-.972 2.168-2.167v-4.776c0-1.195-.973-2.167-2.168-2.167z" fill="#3762cc"/></svg>