<svg id="Layer_1" enable-background="new 0 0 512 512" height="512" viewBox="0 0 512 512" width="512" xmlns="http://www.w3.org/2000/svg"><g><path d="m466.396 294.201c-8.852 0-17.006-3.02-23.473-8.09-8.942-6.99-19.79-11.11-31.147-11.11h-27.555c-3.144 21.67-11.666 41.6-24.161 58.4l21.936 21.94c6.237 6.23 14.012 10.56 22.415 13.23 4.671 1.48 9.042 4.2 12.595 8.15 9.611 10.68 9.69 27.2.18 37.97-11.018 12.48-30.089 12.92-41.676 1.33-3.393-3.39-5.758-7.43-7.086-11.72-2.545-8.19-6.736-15.78-12.804-21.85l-22.305-22.31c-16.756 12.46-36.616 20.96-58.223 24.12v26.45c0 11.51 3.593 22.87 10.808 31.84 5.738 7.14 8.962 16.39 8.303 26.41-1.228 18.91-16.597 34.27-35.518 35.48-.898.06-1.796.08-2.685.08-20.968-.1-37.924-17.12-37.924-38.11 0-8.85 3.014-17 8.074-23.47 6.996-8.94 11.118-19.79 11.118-31.14v-27.54c-21.636-3.16-41.526-11.69-58.293-24.17l-11.726 11.73c-11.158 11.16-16.647 26.76-15.04 42.45 1.796 17.54-4.371 35.74-18.523 48.73-22.076 20.27-56.556 20.18-78.552-.19-24.271-22.49-24.82-60.42-1.637-83.599 12.205-12.2 28.483-17.83 44.46-16.89 15.07.89 29.82-4.53 40.498-15.2l13.792-13.79c-12.465-16.79-20.968-36.69-24.111-58.33h-26.816c-11.517 0-22.874 3.59-31.846 10.8-7.136 5.74-16.397 8.96-26.407 8.31-18.922-1.22-34.271-16.6-35.489-35.52-1.417-22.18 16.157-40.61 38.033-40.61 8.852 0 16.996 3.02 23.463 8.08 8.942 7 19.79 11.11 31.147 11.11h27.964c3.184-21.54 11.676-41.34 24.092-58.05l-20.609-20.61c-6.816-6.83-15.439-11.44-24.77-13.9-6.387-1.69-12.335-5.44-16.806-11.24-8.653-11.23-8.473-27.24.389-38.3 11.826-14.77 33.463-15.65 46.466-2.65 4.032 4.03 6.726 8.9 8.094 14.05 2.675 10.14 7.625 19.54 15.05 26.96l18.932 18.94c16.756-12.47 36.636-20.98 58.243-24.14v-26.89c0-11.51-3.583-22.87-10.798-31.84-5.748-7.14-8.962-16.4-8.313-26.41 1.228-18.92 16.597-34.28 35.519-35.49.778-.05 1.557-.08 2.325-.08 21.137-.1 38.293 17 38.293 38.11 0 8.85-3.024 17-8.084 23.47-6.996 8.94-11.118 19.79-11.118 31.14v27.99c21.577 3.16 41.427 11.65 58.173 24.08l13.732-13.73c10.659-10.67 16.397-25.38 15.439-40.43-1.108-17.22 5.439-34.84 19.631-47.34 21.537-18.97 54.261-19.16 76.007-.43 25.858 22.28 26.946 61.36 3.253 85.05-12.764 12.77-30.01 18.34-46.686 16.71-15.798-1.54-31.497 3.79-42.724 15.01l-11.896 11.89c12.455 16.73 20.968 36.56 24.151 58.13h26.517c11.507 0 22.864-3.58 31.836-10.8 7.146-5.74 16.397-8.96 26.407-8.31 18.922 1.23 34.281 16.6 35.488 35.52 1.419 22.179-16.146 40.619-38.022 40.619z" fill="#a8ea49"/><path d="m466.396 294.201c-8.852 0-17.006-3.02-23.473-8.09-8.942-6.99-19.79-11.11-31.147-11.11h-27.555c-3.144 21.67-11.666 41.6-24.161 58.4l21.936 21.94c6.237 6.23 14.012 10.56 22.415 13.23 4.671 1.48 9.042 4.2 12.595 8.15 9.611 10.68 9.69 27.2.18 37.97-11.018 12.48-30.089 12.92-41.676 1.33-3.393-3.39-5.758-7.43-7.086-11.72-2.545-8.19-6.736-15.78-12.804-21.85l-22.305-22.31c-16.756 12.46-36.616 20.96-58.223 24.12v26.45c0 11.51 3.593 22.87 10.808 31.84 5.738 7.14 8.962 16.39 8.303 26.41-1.228 18.91-16.597 34.27-35.518 35.48-.808.05-1.617.08-2.415.08 11.008-6.8 18.343-18.99 18.343-32.9 0-10.098-3.862-19.289-10.186-26.172-5.355-5.829-8.427-13.398-8.427-21.321v-29.378c0-7.712 4.813-14.66 12.086-17.184 50.074-17.373 86.027-65.04 86.027-121.116s-35.953-103.743-86.027-121.116c-7.272-2.523-12.086-9.472-12.086-17.183v-29.536c0-7.923 3.071-15.492 8.427-21.321 6.324-6.883 10.186-16.074 10.186-26.172 0-14.02-7.455-26.3-18.612-33.06v-.54c21.137-.1 38.293 17 38.293 38.11 0 8.85-3.024 17-8.084 23.47-6.996 8.94-11.118 19.79-11.118 31.14v27.99c21.577 3.16 41.427 11.65 58.173 24.08l13.732-13.73c10.659-10.67 16.397-25.38 15.439-40.43-1.108-17.22 5.439-34.84 19.631-47.34 21.537-18.97 54.261-19.16 76.007-.43 25.858 22.28 26.946 61.36 3.253 85.05-12.764 12.77-30.01 18.34-46.686 16.71-15.798-1.54-31.497 3.79-42.724 15.01l-11.896 11.89c12.455 16.73 20.968 36.56 24.151 58.13h26.517c11.507 0 22.864-3.58 31.836-10.8 7.146-5.74 16.397-8.96 26.407-8.31 18.922 1.23 34.281 16.6 35.488 35.52 1.417 22.179-16.148 40.619-38.024 40.619z" fill="#3fd842"/><g><path d="m483.392 466.271c0 10.08-8.144 18.25-18.183 18.25-3.313 0-6.407-.89-9.082-2.45-5.439-3.14-9.092-9.04-9.092-15.8s3.653-12.66 9.092-15.8c2.675-1.56 5.768-2.45 9.082-2.45 10.04 0 18.183 8.17 18.183 18.25z" fill="#a8ea49"/><path d="m483.392 466.271c0 10.08-8.144 18.25-18.183 18.25-3.313 0-6.407-.89-9.082-2.45 5.429-3.15 9.082-9.05 9.082-15.8s-3.653-12.65-9.082-15.8c2.675-1.56 5.768-2.45 9.082-2.45 10.04 0 18.183 8.17 18.183 18.25z" fill="#3fd842"/></g><g><path d="m64.871 45.776c0 10.08-8.144 18.25-18.183 18.25-3.313 0-6.407-.89-9.082-2.45-5.439-3.14-9.092-9.04-9.092-15.8s3.653-12.66 9.092-15.8c2.675-1.56 5.768-2.45 9.082-2.45 10.04 0 18.183 8.17 18.183 18.25z" fill="#a8ea49"/><path d="m64.871 45.776c0 10.08-8.144 18.25-18.183 18.25-3.313 0-6.407-.89-9.082-2.45 5.429-3.15 9.082-9.05 9.082-15.8s-3.653-12.65-9.082-15.8c2.675-1.56 5.768-2.45 9.082-2.45 10.04 0 18.183 8.17 18.183 18.25z" fill="#3fd842"/></g><g fill="#fff148"><ellipse cx="218.422" cy="227.024" rx="18.215" ry="18.251"/><ellipse cx="256.116" cy="293.023" rx="18.215" ry="18.251"/><path d="m317.965 227.022c0 13.49-10.918 24.43-24.381 24.43-3.832 0-7.455-.89-10.689-2.47-8.104-3.97-13.692-12.31-13.692-21.96s5.589-17.99 13.692-21.96c3.234-1.58 6.856-2.47 10.689-2.47 13.463 0 24.381 10.94 24.381 24.43z"/></g><path d="m317.965 227.022c0 13.49-10.918 24.43-24.381 24.43-3.832 0-7.455-.89-10.689-2.47 8.104-3.98 13.682-12.32 13.682-21.96s-5.579-17.98-13.682-21.96c3.234-1.58 6.856-2.47 10.689-2.47 13.463 0 24.381 10.94 24.381 24.43z" fill="#ffcf4a"/><path d="m236.636 227.024c0 10.08-8.144 18.25-18.183 18.25-3.313 0-6.407-.89-9.082-2.45 5.429-3.15 9.082-9.05 9.082-15.8s-3.653-12.65-9.082-15.8c2.675-1.56 5.768-2.45 9.082-2.45 10.04 0 18.183 8.17 18.183 18.25z" fill="#ffcf4a"/><path d="m274.331 293.023c0 10.08-8.144 18.25-18.183 18.25-3.313 0-6.407-.89-9.082-2.45 5.429-3.15 9.082-9.05 9.082-15.8s-3.653-12.65-9.082-15.8c2.675-1.56 5.768-2.45 9.082-2.45 10.039 0 18.183 8.17 18.183 18.25z" fill="#ffcf4a"/></g><g><path d="m503.782 458.747h-13.588c-.49-1.61-1.134-3.153-1.914-4.613l17.585-17.62c2.923-2.929 2.923-7.678 0-10.606-2.924-2.929-7.663-2.929-10.587 0l-17.585 17.619c-1.457-.781-2.998-1.426-4.604-1.917v-13.614c0-4.142-3.351-7.5-7.485-7.5s-7.485 3.358-7.485 7.5v13.614c-1.607.491-3.147 1.136-4.604 1.917l-6.542-6.554c-2.922-2.93-7.662-2.929-10.586 0-2.923 2.929-2.923 7.678.001 10.606l6.542 6.554c-.78 1.46-1.424 3.004-1.914 4.614h-13.588c-4.135 0-7.485 3.358-7.485 7.5s3.351 7.5 7.485 7.5h13.587c.49 1.61 1.134 3.153 1.914 4.613l-17.586 17.62c-2.923 2.929-2.923 7.678 0 10.606 1.462 1.465 3.377 2.197 5.293 2.197 1.915 0 3.831-.732 5.293-2.197l17.585-17.619c1.457.781 2.997 1.426 4.604 1.917v13.614c0 4.142 3.351 7.5 7.485 7.5s7.485-3.358 7.485-7.5v-13.614c1.607-.491 3.147-1.136 4.604-1.918l6.542 6.554c1.462 1.464 3.378 2.197 5.293 2.197s3.831-.732 5.293-2.197c2.923-2.929 2.923-7.678 0-10.606l-6.542-6.555c.78-1.46 1.424-3.003 1.914-4.613h13.588c4.135 0 7.485-3.358 7.485-7.5.002-4.141-3.348-7.499-7.483-7.499zm-38.177 18.252c-5.916 0-10.73-4.823-10.73-10.752 0-5.928 4.814-10.751 10.73-10.751 5.917 0 10.731 4.823 10.731 10.751s-4.814 10.751-10.731 10.752z"/><path d="m422.799 419.64c12.124-13.726 12.025-34.346-.227-47.964-4.308-4.789-9.802-8.343-15.887-10.278-7.783-2.476-14.307-6.308-19.391-11.392l-17.466-17.464c10.163-15.126 17.235-32.218 20.714-50.063h21.245c9.399 0 18.575 3.293 26.536 9.524 8.085 6.327 17.793 9.671 28.078 9.671 12.565 0 24.699-5.264 33.289-14.441 8.69-9.284 13.027-21.414 12.211-34.156-.557-8.704-3.625-17.041-8.872-24.108-2.47-3.324-7.157-4.012-10.474-1.541-3.317 2.473-4.006 7.171-1.538 10.494 3.518 4.737 5.572 10.309 5.944 16.115.548 8.561-2.362 16.706-8.191 22.935-5.858 6.257-13.802 9.703-22.37 9.703-6.912 0-13.435-2.245-18.861-6.493-10.619-8.31-22.981-12.703-35.752-12.703h-49.273c-4.135 0-7.485 3.358-7.485 7.5s3.351 7.5 7.485 7.5h12.737c-3.089 14.018-8.677 27.459-16.452 39.567l-8.91-8.927c-2.924-2.929-7.663-2.929-10.587 0-2.923 2.929-2.923 7.678 0 10.606l37.415 36.897c6.793 6.793 15.351 11.864 25.437 15.072 3.552 1.13 6.767 3.213 9.296 6.025 7.032 7.815 7.092 20.105.136 27.98-3.918 4.436-9.316 6.979-15.198 7.162-5.92.175-11.426-2.009-15.588-6.171-2.451-2.451-4.21-5.356-5.227-8.636-3.064-9.878-7.997-18.266-14.663-24.931l-37.752-37.289c-2.924-2.929-7.663-2.929-10.587 0-2.923 2.929-2.923 7.678 0 10.606l8.785 8.802c-11.898 7.529-25.062 12.961-38.779 16v-12.757c0-4.142-3.351-7.5-7.485-7.5s-7.485 3.358-7.485 7.5v48.196c0 13.579 4.424 26.559 12.458 36.548 4.803 5.972 7.172 13.506 6.672 21.215-.991 15.264-13.256 27.51-28.53 28.488-8.592.552-16.767-2.377-23.007-8.242-6.222-5.849-9.649-13.77-9.649-22.303 0-6.904 2.243-13.418 6.487-18.84 8.315-10.622 12.709-22.991 12.709-35.77l.076-49.339c0-4.142-3.351-7.5-7.485-7.5s-7.485 3.358-7.485 7.5v12.821c-13.804-3.049-27.049-8.522-39.011-16.116l8.745-8.762c2.923-2.929 2.923-7.678 0-10.606-2.923-2.929-7.663-2.929-10.586 0l-27.051 26.715c-12.779 12.778-19.047 30.466-17.196 48.526 1.644 16.041-4.236 31.504-16.133 42.425-19.22 17.645-49.273 17.575-68.417-.158-10.193-9.441-15.953-22.267-16.217-36.115-.264-13.854 4.986-26.879 14.783-36.675 2.926-2.926 2.931-7.675.011-10.606-2.921-2.932-7.66-2.936-10.586-.011-12.708 12.707-19.518 29.604-19.175 47.579.343 17.968 7.808 34.604 21.022 46.843 12.45 11.532 28.454 17.301 44.463 17.3 15.904-.001 31.814-5.698 44.231-17.097 15.422-14.157 23.044-34.21 20.912-55.017-1.388-13.546 3.306-26.804 12.878-36.377l7.274-7.273c15.099 10.159 32.162 17.236 49.977 20.73v21.213c0 9.39-3.291 18.558-9.518 26.514-6.331 8.088-9.678 17.804-9.678 28.097 0 12.537 5.24 24.653 14.377 33.241 8.551 8.037 19.524 12.37 31.174 12.37 1.005 0 2.016-.032 3.03-.097 22.76-1.456 41.037-19.72 42.515-42.484.744-11.471-2.791-22.693-9.955-31.6-5.896-7.332-9.144-16.97-9.144-27.136v-20.118c17.785-3.489 34.822-10.549 49.901-20.679l17.857 17.854c4.926 4.925 8.607 11.239 10.942 18.766 1.721 5.552 4.816 10.67 8.948 14.802 7.01 7.01 16.708 10.863 26.626 10.546 10.052-.311 19.267-4.649 25.947-12.213z"/><path d="m188.924 173.052c1.461 1.464 3.377 2.197 5.293 2.197s3.831-.732 5.293-2.197c2.923-2.929 2.923-7.678 0-10.606l-8.945-8.963c12.034-7.687 25.378-13.221 39.29-16.294v12.166c0 4.142 3.351 7.5 7.485 7.5s7.485-3.358 7.485-7.5l-.076-48.037c0-13.58-4.424-26.56-12.457-36.547-4.803-5.973-7.173-13.507-6.672-21.215.991-15.264 13.255-27.511 28.529-28.488 8.594-.549 16.767 2.376 23.007 8.242 6.222 5.849 9.649 13.769 9.649 22.302 0 6.904-2.243 13.418-6.487 18.84-8.315 10.622-12.71 22.991-12.71 35.77v49.18c0 4.142 3.351 7.5 7.485 7.5s7.485-3.358 7.485-7.5v-12.197c13.824 3.063 27.088 8.557 39.059 16.178l-8.92 8.937c-2.923 2.929-2.923 7.678 0 10.606 1.462 1.464 3.378 2.197 5.293 2.197s3.831-.732 5.293-2.197l28.979-29.062c12.293-12.292 18.716-29.138 17.623-46.219-1.008-15.737 5.225-30.761 17.101-41.219 18.787-16.544 47.244-16.705 66.196-.378 10.827 9.327 17.079 22.277 17.604 36.465.519 13.992-4.86 27.692-14.756 37.588-10.729 10.729-25.56 16.034-40.677 14.556-18.281-1.79-36.046 4.47-48.743 17.167l-27.25 27.279c-2.923 2.929-2.923 7.678 0 10.606 1.462 1.464 3.378 2.197 5.293 2.197s3.831-.732 5.293-2.197l9.009-9.027c7.621 11.942 13.123 25.175 16.202 38.969h-12.619c-4.135 0-7.485 3.358-7.485 7.5s3.351 7.5 7.485 7.5h48.13c13.571 0 26.544-4.422 36.529-12.45 4.999-4.019 11.022-6.335 17.42-6.695 4.128-.233 7.285-3.774 7.053-7.91s-3.791-7.3-7.894-7.067c-9.53.537-18.504 3.986-25.95 9.973-7.337 5.9-16.982 9.149-27.159 9.149h-20.207c-3.505-17.747-10.569-34.749-20.687-49.795l7.414-7.415c9.522-9.52 22.914-14.2 36.714-12.855 19.598 1.914 38.801-4.962 52.706-18.868 12.838-12.837 19.815-30.61 19.142-48.761-.682-18.409-8.781-35.201-22.805-47.282-24.578-21.175-61.481-20.965-85.837.485-15.39 13.552-23.466 33.033-22.158 53.447.818 12.772-4.015 25.398-13.258 34.641l-9.281 9.28c-15.066-10.111-32.087-17.159-49.85-20.644v-21.662c0-9.39 3.292-18.558 9.519-26.514 6.331-8.088 9.678-17.804 9.678-28.097 0-12.537-5.24-24.653-14.377-33.241-9.289-8.731-21.439-13.094-34.205-12.272-22.759 1.456-41.036 19.72-42.514 42.484-.745 11.47 2.79 22.692 9.955 31.601 5.896 7.331 9.143 16.968 9.143 27.135v20.566c-17.794 3.491-34.84 10.557-49.925 20.695l-14.484-14.483c-2.926-2.927-7.666-2.921-10.586.011s-2.916 7.681.011 10.606z"/><path d="m74.149 291.627c7.337-5.899 16.981-9.148 27.159-9.148h20.509c3.474 17.814 10.528 34.881 20.663 49.986l-9.319 9.319c-9.051 9.051-21.717 13.802-34.777 13.028-4.919-.29-9.876-.027-14.731.785-4.077.682-6.832 4.547-6.152 8.632.611 3.668 3.782 6.267 7.374 6.267.409 0 .824-.034 1.241-.104 3.752-.627 7.584-.831 11.386-.607 17.305 1.021 34.16-5.313 46.233-17.384l29.189-28.8c2.923-2.929 2.923-7.677 0-10.606-2.923-2.93-7.663-2.929-10.586 0l-8.88 8.897c-7.722-12.067-13.275-25.455-16.351-39.413h12.737c4.134 0 7.485-3.358 7.485-7.5s-3.351-7.5-7.485-7.5h-48.537c-13.572 0-26.545 4.421-36.529 12.45-5.978 4.807-13.519 7.179-21.24 6.678-15.272-.991-27.525-13.25-28.502-28.515-.548-8.561 2.361-16.705 8.191-22.934 5.857-6.257 13.802-9.703 22.37-9.703 6.913 0 13.435 2.245 18.862 6.493 10.618 8.31 22.98 12.703 35.751 12.703h49.68c4.134 0 7.485-3.358 7.485-7.5s-3.351-7.5-7.485-7.5h-12.713c3.066-13.734 8.534-26.912 16.103-38.813l8.912 8.93c1.461 1.465 3.377 2.197 5.293 2.197 1.915 0 3.831-.732 5.293-2.197 2.923-2.929 2.923-7.677 0-10.606l-35.826-35.983c-7.473-7.473-17.208-12.952-28.152-15.845-5.088-1.345-9.513-4.309-12.794-8.57-6.518-8.463-6.391-20.669.302-29.023 4.317-5.389 10.449-8.563 17.266-8.939 6.725-.376 13.317 2.146 18.077 6.904 2.96 2.959 5.085 6.645 6.146 10.66 1.058 4.004 5.156 6.39 9.152 5.33 3.996-1.061 6.378-5.167 5.319-9.17-1.739-6.576-5.211-12.605-10.043-17.436-7.764-7.764-18.509-11.869-29.475-11.265-10.957.604-21.205 5.899-28.117 14.527-10.967 13.688-11.169 33.697-.48 47.576 5.317 6.904 12.519 11.714 20.828 13.91 8.393 2.219 15.792 6.354 21.397 11.958l16.136 16.136c-10.091 15.027-17.137 32.002-20.636 49.719h-21.667c-9.399 0-18.575-3.293-26.535-9.524-8.084-6.327-17.793-9.671-28.078-9.671-12.565 0-24.698 5.264-33.289 14.441-8.69 9.284-13.028 21.413-12.212 34.155 1.457 22.766 19.717 41.047 42.474 42.524 11.466.741 22.677-2.79 31.578-9.949z"/><path d="m8.044 53.254h13.588c.49 1.61 1.134 3.153 1.914 4.613l-17.586 17.62c-2.923 2.929-2.923 7.678 0 10.606 1.461 1.464 3.377 2.197 5.293 2.197s3.831-.732 5.293-2.197l17.585-17.619c1.457.781 2.997 1.427 4.604 1.917v13.614c0 4.142 3.351 7.5 7.485 7.5s7.485-3.358 7.485-7.5v-13.614c1.607-.491 3.147-1.136 4.605-1.917l6.542 6.554c1.461 1.465 3.377 2.197 5.293 2.197s3.831-.732 5.293-2.197c2.924-2.929 2.924-7.678 0-10.606l-6.542-6.554c.78-1.46 1.423-3.003 1.914-4.613h13.588c4.134 0 7.485-3.358 7.485-7.5s-3.351-7.5-7.485-7.5h-13.577c-.484-1.602-1.124-3.15-1.912-4.625l17.573-17.607c2.923-2.929 2.923-7.678 0-10.606-2.923-2.929-7.663-2.929-10.586 0l-17.573 17.605c-1.473-.79-3.018-1.431-4.617-1.916v-13.603c0-4.142-3.351-7.5-7.485-7.5s-7.485 3.358-7.485 7.5v13.614c-1.607.491-3.147 1.136-4.604 1.917l-6.542-6.554c-2.923-2.93-7.663-2.929-10.586 0s-2.923 7.677 0 10.606l6.541 6.554c-.78 1.46-1.424 3.003-1.914 4.614h-13.587c-4.134 0-7.485 3.358-7.485 7.5s3.351 7.5 7.485 7.5zm38.177-18.251c2.866 0 5.56 1.118 7.587 3.149s3.143 4.73 3.143 7.603c0 5.928-4.814 10.751-10.73 10.751-5.917 0-10.73-4.823-10.73-10.751s4.813-10.752 10.73-10.752z"/><path d="m218.418 201.249c-14.172 0-25.701 11.552-25.701 25.752 0 14.199 11.53 25.751 25.701 25.751s25.701-11.552 25.701-25.752c0-14.199-11.529-25.751-25.701-25.751zm0 36.503c-5.917 0-10.73-4.823-10.73-10.751 0-5.929 4.814-10.752 10.73-10.752 5.917 0 10.73 4.823 10.73 10.751.001 5.929-4.813 10.752-10.73 10.752z"/><path d="m256.115 318.752c14.172 0 25.701-11.552 25.701-25.752 0-14.199-11.53-25.751-25.701-25.751s-25.701 11.552-25.701 25.752c0 14.199 11.529 25.751 25.701 25.751zm0-36.503c5.917 0 10.73 4.823 10.73 10.751 0 5.929-4.814 10.752-10.73 10.752-5.917 0-10.73-4.823-10.73-10.751 0-5.929 4.813-10.752 10.73-10.752z"/><path d="m325.448 227c0-17.605-14.295-31.927-31.866-31.927s-31.865 14.323-31.865 31.928 14.295 31.927 31.865 31.927c17.571 0 31.866-14.322 31.866-31.928zm-48.76.001c0-9.334 7.579-16.928 16.895-16.928s16.895 7.594 16.895 16.928-7.579 16.928-16.895 16.928-16.895-7.594-16.895-16.928z"/><circle cx="52.788" cy="155.531" r="7.485"/><circle cx="172.553" cy="59.528" r="7.485"/><ellipse cx="132.632" cy="29.528" rx="7.485" ry="7.485" transform="matrix(.987 -.16 .16 .987 -3.017 21.627)"/><circle cx="102.69" cy="316.525" r="7.485"/><circle cx="352.183" cy="459.526" r="7.485"/><circle cx="448.186" cy="339.761" r="7.485"/><circle cx="478.186" cy="379.682" r="7.485"/><circle cx="191.188" cy="409.624" r="7.485"/><path d="m411.816 191.777c0 4.134 3.351 7.485 7.485 7.485s7.485-3.351 7.485-7.485-3.351-7.485-7.485-7.485c-4.134-.001-7.485 3.351-7.485 7.485z"/><path d="m320.494 103.263c4.134 0 7.485-3.351 7.485-7.485s-3.351-7.485-7.485-7.485-7.485 3.351-7.485 7.485 3.351 7.485 7.485 7.485z"/><path d="m425.788 69.778c0-4.134-3.351-7.485-7.485-7.485s-7.485 3.351-7.485 7.485 3.351 7.485 7.485 7.485 7.485-3.351 7.485-7.485z"/><path d="m405.827 98.781c0 4.134 3.351 7.485 7.485 7.485s7.485-3.351 7.485-7.485-3.351-7.485-7.485-7.485-7.485 3.351-7.485 7.485z"/><circle cx="442.256" cy="86.777" r="7.485"/><path d="m85.454 401.775c0-4.134-3.351-7.485-7.485-7.485s-7.485 3.351-7.485 7.485 3.351 7.485 7.485 7.485 7.485-3.351 7.485-7.485z"/><path d="m65.493 430.779c0 4.134 3.351 7.485 7.485 7.485s7.485-3.351 7.485-7.485-3.351-7.485-7.485-7.485c-4.134-.001-7.485 3.351-7.485 7.485z"/><circle cx="101.922" cy="418.775" r="7.485"/></g></svg>